<svg xmlns="http://www.w3.org/2000/svg" width="60" height="75" viewBox="0 0 63.672 74.356">
  <g id="Group_1" transform="translate(-0.014 0.002)">
    <path id="Path_1" d="M85.055,32.306v-.2c0-.232-.007-.45-.007-.655-.02-1.3-.046-2.178-.06-2.317l-.02-.245a1.985,1.985,0,0,0-.953-1.549l-.212-.126c-.51-.3-12.689-7.526-30.568-7.526S23.176,26.91,22.667,27.214l-.212.126a1.968,1.968,0,0,0-.947,1.549l-.02.245A84.823,84.823,0,0,0,24,53.76c3.791,14.867,11.568,26.252,22.49,32.911a.249.249,0,0,1,.126.232q-.02.238-.02.477a6.636,6.636,0,1,0,2.423-5.1.229.229,0,0,1-.271.02c-9.73-6-16.442-15.979-19.944-29.668a83.054,83.054,0,0,1-2.456-21.678.246.246,0,0,1,.132-.218,60.749,60.749,0,0,1,26.755-6.143A62.069,62.069,0,0,1,75.84,28.882v.007c1.774.7,3.164,1.357,4.124,1.84a.246.246,0,0,1,.132.218c.02.682.026,1.589.013,2.681l-.026.748.013-.007c-.007.2-.013.4-.013.609a.8.8,0,0,1-.007.126c-.007.238-.02.483-.026.728,0,.073-.007.146-.007.218-.013.238-.02.483-.033.728-.007.093-.013.185-.013.271-.013.232-.026.463-.04.7l-.02.338c-.013.192-.026.384-.04.583-.013.152-.026.3-.033.463-.013.205-.033.41-.053.622-.013.139-.026.271-.04.41-.02.245-.046.5-.073.748-.013.152-.033.3-.046.45-.026.225-.046.45-.073.682-.02.179-.04.364-.066.543s-.046.364-.066.549c-.026.225-.06.457-.093.682-.026.192-.053.377-.079.569-.026.172-.046.344-.073.516-.04.265-.079.53-.126.794-.026.165-.053.338-.079.5-.046.285-.093.569-.146.854-.026.159-.06.324-.086.483-.046.238-.086.477-.132.722-.013.079-.033.159-.046.238h0c-.1.516-.212,1.039-.324,1.562A81.651,81.651,0,0,1,75.88,58.47c-.066.192-.132.384-.2.569-.02.06-.046.119-.066.179-.536,1.463-1.125,2.873-1.747,4.23-2.145,4.521-4.375,7.05-6.328,8.426A7.6,7.6,0,0,1,61.3,73.307,6.778,6.778,0,0,1,57,69.951a11.776,11.776,0,0,1-1.284-3.012L50.9,68.011c.073.344,1.939,8.453,9.32,10.108a12.3,12.3,0,0,0,2.37.3,12.706,12.706,0,0,0,7.8-2.5c3.932-2.787,7.222-7.864,9.836-15.013V60.9a68.03,68.03,0,0,0,2.237-7.162,87.722,87.722,0,0,0,2.615-20.679h0C85.061,32.81,85.061,32.551,85.055,32.306ZM51.713,84.964a2.925,2.925,0,0,1,1.529-.437A2.853,2.853,0,1,1,50.4,87.783a3.4,3.4,0,0,1-.033-.4,2.864,2.864,0,0,1,1.346-2.419Z" transform="translate(-21.389 -19.69)" fill="#00ac69"/>
    <path id="Path_2" d="M52.752,47.616a3.66,3.66,0,0,0,2.694.993c2.171,0,3.27-.808,3.27-2.409,0-.722-.318-2.409-3.27-2.409a3.471,3.471,0,0,0-2.853,1.185,8.93,8.93,0,0,0-7.156,5.468c-2.059,4.779-.874,9.969.013,12.643l.3.913.662-.7a1.125,1.125,0,0,1,.391-.271h0a1.064,1.064,0,0,1,.543-.066l.887.1-.278-.847c-.761-2.317-1.781-6.8-.086-10.723A6.342,6.342,0,0,1,52.752,47.616Z" transform="translate(-29.134 -27.837)" fill="#00ac69"/>
    <path id="Path_3" d="M83.435,63.049l.887-.1a1.168,1.168,0,0,1,.549.066h0a1.124,1.124,0,0,1,.391.271l.662.7.3-.913c.887-2.674,2.072-7.864.013-12.643a8.885,8.885,0,0,0-7.149-5.468A3.471,3.471,0,0,0,76.24,43.78c-2.952,0-3.27,1.688-3.27,2.409,0,1.6,1.1,2.409,3.27,2.409a3.66,3.66,0,0,0,2.694-.993,6.348,6.348,0,0,1,4.878,3.866c1.688,3.912.669,8.4-.093,10.723Z" transform="translate(-38.827 -27.834)" fill="#00ac69"/>
    <path id="Path_4" d="M77.239,72.234a2.378,2.378,0,0,0-1.311-1.3,2.41,2.41,0,0,0-3.138,1.311c-3.382,8.195-8.4,9.572-10.4,9.783a11,11,0,0,1-2.191.007c-2.012-.185-7.069-1.522-10.478-9.8a2.406,2.406,0,0,0-4.455,1.82C50.53,86.823,59.652,86.929,61.254,86.843c.113.007.258.013.437.013,2.409,0,10.651-.92,15.549-12.8A2.363,2.363,0,0,0,77.239,72.234Z" transform="translate(-29.401 -36.953)" fill="#12284c"/>
  </g>
</svg>
